<svg version="1.1" xmlns="http://www.w3.org/2000/svg">
    <symbol id="Home" viewBox="0 0 100 100">
        <path d="m78.582 54.838v23.818q0 1.2901-0.9428 2.2329-0.9428 0.9428-2.2329 0.9428h-19.054v-19.054h-12.703v19.054h-19.054q-1.2901 0-2.2329-0.9428-0.9428-0.9428-0.9428-2.2329v-23.818q0-0.04962 0-0.14885 0.04962-0.09924 0.04962-0.14888l28.532-23.52 28.532 23.52q0.0496 0.09924 0.0496 0.29773zm11.065-3.4238-3.0765 3.672q-0.39697 0.44659-1.042 0.54583h-0.14885q-0.64507 0-1.042-0.34735l-34.338-28.631-34.338 28.631q-0.59545 0.39697-1.1909 0.34735-0.64507-0.09923-1.042-0.54583l-3.0765-3.672q-0.39697-0.49621-0.34735-1.1413 0.04962-0.69469 0.54583-1.0917l35.677-29.723q1.5879-1.2901 3.7712-1.2901 2.1833 0 3.7712 1.2901l12.108 10.123v-9.6761q0-0.69469 0.44659-1.1413 0.44659-0.44659 1.1413-0.44659h9.5272q0.69469 0 1.1413 0.44659 0.44659 0.44659 0.44659 1.1413v20.245l10.867 9.031q0.49621 0.39697 0.54583 1.0917 0.0496 0.64507-0.34735 1.1413z" stroke-width="2.223"/>
    </symbol>
</svg>
