<svg version="1.1" xmlns="http://www.w3.org/2000/svg">
    <symbol id="Icon" viewBox="0 0 100 100" >
        <path d="m75 10q6.1979 0 10.573 4.4271 4.4271 4.375 4.4271 10.573v50q0 6.1979-4.4271 10.573-4.375 4.4271-10.573 4.4271h-50q-6.1979 0-10.625-4.4271-4.375-4.375-4.375-10.573v-50q0-6.1979 4.375-10.573 4.4271-4.4271 10.625-4.4271zm-39.01 19.115h-19.323v40.99h19.896q6.0938 0 10.26-2.9688 4.1667-3.0208 4.1667-8.9063 0-8.2292-7.4479-10.417 5.5729-2.7083 5.5729-8.5417 0-2.9687-1.0417-5-0.98958-2.0833-2.9167-3.1771-1.9271-1.0938-4.1146-1.5104-2.1875-0.46875-5.0521-0.46875zm-1.1458 16.562h-9.1667v-9.5833h8.4896q6.1979 0 6.1979 4.6875 0 4.8958-5.5208 4.8958zm0.46875 17.448h-9.6354v-11.302h9.8438q6.4583 0 6.4583 5.8854 0 5.4167-6.6667 5.4167zm33.854 1.6667q-3.5417 0-5.4167-1.9792-1.875-1.9792-1.875-5.5729h21.406q0.0521-0.52083 0.0521-1.5625 0-6.875-3.9062-11.458-3.8542-4.6354-10.573-4.6354-6.6667 0-10.938 4.4792t-4.2708 11.25q0 7.0313 4.1146 11.302 4.1146 4.2708 11.094 4.2708 10.677 0 13.906-9.9479h-7.1875q-0.57292 1.7708-2.5 2.8125-1.875 1.0417-3.9062 1.0417zm-0.52083-19.062q5.8854 0 6.4583 6.3542h-13.229q0.20834-2.9167 2.0312-4.6354 1.8229-1.7188 4.7396-1.7188zm-8.4375-13.854h16.615v4.0104h-16.615z" stroke-width="2.3333"/>
    </symbol>
</svg>
