<svg version="1.1" xmlns="http://www.w3.org/2000/svg">
    <symbol id="Note" viewBox="0 0 100 100" >
        <path d="m31.042 61.042 7.9167 7.9167-2.7083 2.7083h-2.9167v-5h-5v-2.9167zm21.563-20.313q0.72917 0.67708-0.15626 1.5625l-15.156 15.156q-0.88542 0.88542-1.5625 0.15624-0.72917-0.67708 0.15624-1.5625l15.156-15.156q0.88542-0.88542 1.5625-0.15624zm-14.271 35.938 28.333-28.333-15-15-28.333 28.333v15zm31.667-31.667 4.7917-4.7917q1.4583-1.4583 1.4583-3.5417t-1.4583-3.5417l-7.9167-7.9167q-1.4583-1.4583-3.5417-1.4583t-3.5417 1.4583l-4.7917 4.7917zm20-20v50q0 6.1979-4.4271 10.573-4.375 4.4271-10.573 4.4271h-50q-6.1979 0-10.625-4.4271-4.375-4.375-4.375-10.573v-50q0-6.1979 4.375-10.573 4.4271-4.4271 10.625-4.4271h50q6.1979 0 10.573 4.4271 4.4271 4.375 4.4271 10.573z" stroke-width="2.3333"/>
    </symbol>
</svg>
