<svg version="1.1" xmlns="http://www.w3.org/2000/svg">
    <symbol id="Profolio" viewBox="0 0 100 100">
        <path d="m77.991 69.777q-0.98214-6.9196-3.9286-11.473-2.9018-4.5982-8.2143-5.3125-2.9911 3.3036-7.1429 5.1786-4.1071 1.8304-8.7054 1.8304t-8.75-1.8304q-4.1071-1.875-7.0982-5.1786-5.3125 0.71429-8.2589 5.3125-2.9018 4.5536-3.8839 11.473 4.7321 6.6964 12.098 10.58 7.3661 3.9286 15.893 3.9286t15.893-3.9286q7.3661-3.8839 12.098-10.58zm-15.893-19.062q5.0446-5.0446 5.0446-12.143t-5.0446-12.098q-5-5.0446-12.098-5.0446t-12.143 5.0446q-5 5-5 12.098t5 12.143q5.0446 5 12.143 5t12.098-5zm24.732-16.25q3.1696 7.4107 3.1696 15.536t-3.1696 15.536q-3.1696 7.3661-8.5268 12.768-5.3125 5.3571-12.723 8.5268-7.4107 3.1696-15.58 3.1696-8.125 0-15.536-3.1696-7.4107-3.1696-12.768-8.5268-5.3571-5.3571-8.5268-12.768-3.1696-7.4107-3.1696-15.536t3.1696-15.536q3.1696-7.4107 8.5268-12.768 5.3571-5.3571 12.768-8.5268 7.4107-3.1696 15.536-3.1696t15.536 3.1696q7.4107 3.1696 12.768 8.5268 5.3571 5.3571 8.5268 12.768z" stroke-width="2"/>
    </symbol>
</svg>
