<svg version="1.1"  xmlns="http://www.w3.org/2000/svg">
    <symbol id="Setting" viewBox="0 0 100 100">
        <path d="m59.427 59.427q3.9062-3.9062 3.9062-9.4271 0-5.5208-3.9062-9.4271-3.9062-3.9062-9.4271-3.9062-5.5208 0-9.4271 3.9062-3.9063 3.9062-3.9063 9.4271 0 5.5208 3.9063 9.4271 3.9062 3.9062 9.4271 3.9062 5.5208 0 9.4271-3.9062zm30.573-15.104v11.562q0 0.625-0.41666 1.1979-0.41667 0.57292-1.0417 0.67708l-9.6354 1.4583q-0.98958 2.8125-2.0312 4.7396 1.8229 2.6042 5.5729 7.1875 0.52083 0.625 0.52083 1.3021 0 0.67708-0.46875 1.1979-1.4062 1.9271-5.1562 5.625-3.75 3.6979-4.8958 3.6979-0.625 0-1.3542-0.46875l-7.1875-5.625q-2.2917 1.1979-4.7396 1.9792-0.83333 7.0833-1.5104 9.6875-0.36458 1.4583-1.875 1.4583h-11.562q-0.72917 0-1.3021-0.46875-0.52083-0.41666-0.57292-1.0938l-1.4583-9.5833q-2.5521-0.83333-4.6875-1.9271l-7.3438 5.5729q-0.52083 0.46875-1.3021 0.46875-0.72917 0-1.3021-0.57291-6.5625-5.9375-8.5938-8.75-0.36458-0.52083-0.36458-1.1979 0-0.625 0.41667-1.1979 0.78125-1.0938 2.6562-3.4375 1.875-2.3958 2.8125-3.6979-1.4062-2.6042-2.1354-5.1563l-9.5312-1.4062q-0.67708-0.10416-1.0938-0.625-0.41667-0.57292-0.41667-1.25v-11.562q0-0.625 0.41667-1.1979 0.41667-0.57292 0.98958-0.67708l9.6875-1.4583q0.72917-2.3958 2.0313-4.7917-2.0833-2.9688-5.5729-7.1875-0.52083-0.625-0.52083-1.25 0-0.52083 0.46875-1.1979 1.3542-1.875 5.1042-5.5729 3.8021-3.75 4.9479-3.75 0.67708 0 1.3542 0.52083l7.1875 5.5729q2.2917-1.1979 4.7396-1.9792 0.83333-7.0833 1.5104-9.6875 0.36458-1.4583 1.875-1.4583h11.562q0.72917 0 1.25 0.46875 0.57292 0.41667 0.625 1.0938l1.4583 9.5833q2.5521 0.83333 4.6875 1.9271l7.3958-5.5729q0.46875-0.46875 1.25-0.46875 0.67708 0 1.3021 0.52084 6.7187 6.1979 8.5937 8.8542 0.36459 0.41667 0.36459 1.1458 0 0.625-0.41667 1.1979-0.78125 1.0938-2.6562 3.4896-1.875 2.3437-2.8125 3.6458 1.3542 2.6042 2.1354 5.1042l9.5312 1.4583q0.67708 0.10416 1.0938 0.67708 0.41666 0.52083 0.41666 1.1979z" stroke-width="2.3333"/>
    </symbol>
</svg>
